<svg width="139" height="29" viewBox="0 0 139 29" fill="none" xmlns="http://www.w3.org/2000/svg"><path fill-rule="evenodd" clip-rule="evenodd" d="M138.16 17.258c0 1.505-1.204 2.809-2.709 2.809-1.505 0-2.809-1.204-2.809-2.71 0-1.504 1.204-2.808 2.709-2.808 1.505 0 2.809 1.204 2.809 2.709zM123.913 1.303c-1.505 0-2.81 1.305-2.709 2.81 0 1.505 1.304 2.709 2.809 2.709 1.505 0 2.709-1.305 2.709-2.81 0-1.505-1.204-2.709-2.809-2.709zM116.588 0c-1.204 0-2.107 1.003-2.107 2.207s1.004 2.107 2.208 2.107c1.204 0 2.107-1.003 2.107-2.207S117.792 0 116.588 0zm17.86 9.732c0-1.906-1.605-3.41-3.512-3.41-1.906 0-3.411 1.604-3.411 3.51 0 1.907 1.605 3.412 3.512 3.412 1.906-.1 3.511-1.605 3.411-3.512zm0 12.743c-1.104 0-1.906.903-1.906 2.007 0 1.103.903 1.906 2.006 1.906 1.104 0 2.007-.903 1.907-2.007 0-1.103-.903-1.906-2.007-1.906zm-5.117 3.612c-.602 0-1.104.502-1.104 1.204 0 .602.502 1.104 1.204 1.104.602 0 1.104-.502 1.104-1.204 0-.703-.602-1.204-1.204-1.104zM111.973 4.114c-.702 0-1.304.602-1.204 1.304.1.702.602 1.204 1.304 1.204.703 0 1.305-.602 1.204-1.304-.1-.703-.602-1.204-1.304-1.204zm-.401 5.317c-.602 0-1.004.502-1.004 1.004s.502 1.003 1.004 1.003c.501 0 1.003-.502 1.003-1.003 0-.602-.401-1.004-1.003-1.004zm9.532 10.736l4.013-4.013c.301-.301.301-.703.201-1.104-.201-.401-.502-.602-1.004-.602-.301 0-.501.1-.702.301l-4.013 4.014-4.114-4.114a1.085 1.085 0 00-.702-.301c-.402 0-.803.3-1.004.602-.2.401-.1.803.201 1.104l4.114 4.113-4.014 4.014c-.301.3-.401.702-.2 1.103.2.402.501.602 1.003.602.301 0 .502-.1.702-.3l4.014-4.014 4.013 3.712c.201.201.502.301.702.301.402 0 .803-.2 1.004-.602.2-.401.1-.802-.201-1.103l-4.013-3.713zm-119.9-5.82h7.525c1.505 0 2.91 1.405 2.91 2.91v5.92c0 1.405-1.405 2.81-2.91 2.81H1.204C.502 25.987 0 25.385 0 24.783v-9.13c0-.703.502-1.305 1.204-1.305zm7.525 9.533c.401 0 .803-.402.803-.803h.1v-5.82c0-.4-.401-.802-.803-.802H2.107v7.425h6.622zm17.057-9.532h-5.619c-1.705 0-3.01 1.304-3.01 2.91v7.725c0 .602.502 1.004 1.004 1.004.602 0 1.003-.502 1.003-1.004v-3.511h7.525v3.511c0 .602.502 1.004 1.004 1.004.602 0 1.003-.502 1.003-1.004v-7.726c.2-1.806-1.405-2.91-2.91-2.91zm1.004 5.117h-7.525v-2.207c0-.502.501-.803 1.003-.803h5.619c.501 0 1.003.3 1.003.803v2.207h-.1zm7.524-5.117h8.127c.602 0 1.104.502.903 1.103 0 .502-.401 1.004-1.003 1.004h-3.01v8.528c0 .502-.401 1.004-1.003 1.004a1.005 1.005 0 01-1.004-1.004v-8.628h-3.01a1.005 1.005 0 01-1.003-1.004c0-.502.401-1.003 1.003-1.003zm22.676 0h-5.619c-1.705 0-3.01 1.304-3.01 2.91v7.725c0 .602.402 1.004 1.004 1.004s1.003-.502 1.003-1.004v-3.511h7.525v3.511c0 .602.502 1.004 1.004 1.004.602 0 1.003-.502 1.003-1.004v-7.726c.1-1.806-1.405-2.91-2.91-2.91zm1.003 5.117h-7.525v-2.207c0-.502.502-.803 1.004-.803h5.618c.502 0 1.004.3 1.004.803v2.207h-.1zm10.335-.301h6.22c1.806 0 2.81 1.706 2.81 3.411 0 1.606-.803 3.412-2.81 3.412h-7.826a1.005 1.005 0 01-1.003-1.004c0-.602.401-1.003 1.003-1.003h7.827c.601 0 .802-.803.802-1.304 0-.602-.2-1.405-.802-1.405h-6.12c-2.008 0-2.91-1.706-2.91-3.412 0-1.705.902-3.41 2.809-3.41h6.822c.502 0 1.004.4 1.004 1.002 0 .502-.401 1.004-1.004 1.004h-6.822c-.602 0-.803.803-.803 1.304 0 .602.2 1.405.803 1.405zm22.575-4.816h-8.83c-.601 0-1.003.502-1.003 1.003 0 .602.502 1.004 1.004 1.004h3.712v8.528c0 .602.502 1.003 1.003 1.003.602 0 1.004-.501 1.004-1.003v-8.528h3.01c.602 0 1.003-.502 1.003-1.004.2-.502-.301-1.003-.903-1.003zm8.93 0h5.619c1.404 0 3.01 1.103 2.909 2.91v7.725c0 .502-.401 1.004-1.003 1.004a1.005 1.005 0 01-1.003-1.004v-3.511h-7.526v3.511c0 .502-.4 1.004-1.003 1.004a1.005 1.005 0 01-1.003-1.004v-7.726c0-1.605 1.304-2.91 3.01-2.91zm-1.004 5.117h7.627v-2.207c0-.502-.502-.803-1.003-.803h-5.62c-.5 0-1.002.3-1.002.803v2.207z" fill="#fff"/></svg>