<svg width="198" height="56" viewBox="0 0 198 56" fill="none" xmlns="http://www.w3.org/2000/svg"><path d="M195.629 24.311c0 2.12-1.696 3.958-3.816 3.958s-3.958-1.697-3.958-3.817 1.696-3.957 3.816-3.957c2.121 0 3.958 1.696 3.958 3.816zM175.558 1.837c-2.12 0-3.957 1.838-3.816 3.958 0 2.12 1.838 3.816 3.958 3.816s3.816-1.837 3.816-3.957-1.696-3.817-3.958-3.817zM165.24 0c-1.696 0-2.968 1.413-2.968 3.11 0 1.696 1.414 2.968 3.11 2.968s2.968-1.414 2.968-3.11S166.936 0 165.24 0zm25.159 13.71c0-2.685-2.261-4.805-4.947-4.805-2.685 0-4.805 2.261-4.805 4.947 0 2.685 2.261 4.805 4.947 4.805 2.685-.141 4.947-2.261 4.805-4.947zm0 17.95c-1.554 0-2.685 1.273-2.685 2.828 0 1.554 1.272 2.685 2.827 2.685 1.554 0 2.827-1.272 2.685-2.827 0-1.554-1.272-2.685-2.827-2.685zm-7.208 5.09c-.848 0-1.555.706-1.555 1.695 0 .848.707 1.555 1.696 1.555.848 0 1.555-.707 1.555-1.696 0-.99-.848-1.696-1.696-1.555zM158.739 5.794c-.99 0-1.838.848-1.697 1.838.142.989.849 1.696 1.838 1.696.989 0 1.837-.848 1.696-1.838-.141-.99-.848-1.696-1.837-1.696zm-.566 7.491c-.848 0-1.413.707-1.413 1.414 0 .706.706 1.413 1.413 1.413.707 0 1.414-.707 1.414-1.413 0-.848-.566-1.414-1.414-1.414z" fill="#055992"/><path d="M172.601 28.41l5.653-5.654c.424-.424.424-.99.283-1.555-.283-.565-.707-.848-1.413-.848-.424 0-.707.142-.99.424l-5.654 5.654-5.795-5.795a1.524 1.524 0 00-.989-.424c-.565 0-1.131.424-1.413.848-.283.565-.142 1.13.282 1.555l5.795 5.795-5.653 5.653c-.424.424-.566.99-.283 1.555.283.566.707.848 1.413.848.424 0 .707-.141.99-.424l5.653-5.653 5.654 5.23c.283.282.707.423.99.423.565 0 1.13-.282 1.413-.848.283-.565.141-1.13-.283-1.555l-5.653-5.23zM14.297 20.212h-10.6c-.99 0-1.697.848-1.697 1.837v12.863c0 .848.707 1.696 1.696 1.696h10.6c2.121 0 4.1-1.98 4.1-3.958v-8.34c0-2.12-1.979-4.098-4.1-4.098zm1.13 12.297c0 .565-.565 1.13-1.13 1.13H4.968V23.18h9.47c.566 0 1.13.566 1.13 1.13v8.199h-.14zm22.898-12.297H30.41c-2.403 0-4.24 1.837-4.24 4.099v10.883c0 .848.706 1.414 1.413 1.414.848 0 1.413-.707 1.413-1.414v-4.947h10.6v4.947c0 .848.708 1.414 1.414 1.414.848 0 1.414-.707 1.414-1.414V24.311c.282-2.544-1.98-4.1-4.1-4.1zm1.413 7.208h-10.6v-3.11c0-.706.706-1.13 1.413-1.13h7.915c.707 0 1.414.424 1.414 1.13v3.11h-.142zm22.05-7.208H50.34c-.849 0-1.414.707-1.414 1.413 0 .848.707 1.414 1.414 1.414h4.24v12.155c0 .848.707 1.414 1.413 1.414.848 0 1.414-.707 1.414-1.414V23.18h4.24c.848 0 1.413-.707 1.413-1.413.283-.848-.424-1.555-1.272-1.555zm20.494 0h-7.915c-2.403 0-4.24 1.837-4.24 4.099v10.883c0 .848.565 1.414 1.413 1.414.848 0 1.414-.707 1.414-1.414v-4.947h10.6v4.947c0 .848.707 1.414 1.414 1.414.848 0 1.413-.707 1.413-1.414V24.311c.142-2.544-1.978-4.1-4.099-4.1zm1.414 7.208h-10.6v-3.11c0-.706.706-1.13 1.413-1.13h7.915c.707 0 1.413.424 1.413 1.13v3.11h-.141zm23.321-.424h-8.763c-.848 0-1.13-1.13-1.13-1.978 0-.707.282-1.838 1.13-1.838h9.611c.848 0 1.414-.707 1.414-1.413 0-.848-.707-1.414-1.414-1.414h-9.611c-2.686 0-3.958 2.403-3.958 4.806s1.272 4.806 4.1 4.806h8.621c.848 0 1.131 1.13 1.131 1.978 0 .707-.283 1.838-1.131 1.838H95.993c-.849 0-1.414.565-1.414 1.413 0 .848.707 1.414 1.414 1.414h11.024c2.827 0 3.958-2.544 3.958-4.806 0-2.403-1.414-4.806-3.958-4.806zm23.04-6.784h-12.439c-.848 0-1.413.707-1.413 1.413 0 .848.707 1.414 1.413 1.414h5.23v12.014c0 .848.707 1.413 1.414 1.413.848 0 1.413-.706 1.413-1.413V23.039h4.24c.848 0 1.414-.707 1.414-1.414.282-.706-.424-1.413-1.272-1.413zm20.494 0h-7.915c-2.403 0-4.241 1.837-4.241 4.099v10.883c0 .848.707 1.414 1.414 1.414.848 0 1.413-.707 1.413-1.414v-4.947h10.601v4.947c0 .848.707 1.414 1.413 1.414.849 0 1.414-.707 1.414-1.414V24.311c.141-2.544-2.12-4.1-4.099-4.1zm1.272 7.208h-10.601v-3.11c0-.706.707-1.13 1.414-1.13h7.915c.707 0 1.413.424 1.413 1.13v3.11h-.141z" fill="#1F2438"/></svg>