<svg width="261" height="48" viewBox="0 0 261 48" fill="none" xmlns="http://www.w3.org/2000/svg"><g clip-path="url(#clip0)"><path d="M72.603 22.326h-9.115a1.992 1.992 0 01-1.618-.559 1.747 1.747 0 01-.463-1.21 1.858 1.858 0 012.115-1.854h14.696V14.44H63.522c-2.607 0-4.108.72-5.096 1.909a6.073 6.073 0 00-1.356 3.963 6.14 6.14 0 001.473 4.169c.955 1.01 2.372 1.674 4.979 1.674h8.964c.987 0 1.45.201 1.769.559a1.836 1.836 0 01.558 1.3c0 .47-.175.924-.491 1.273-.318.346-.81.558-1.825.558H57.589v4.136h15.014c2.573 0 4.197-.9 5.235-2.2a5.983 5.983 0 001.306-3.644 5.872 5.872 0 00-1.362-3.734c-1.071-1.284-2.718-2.076-5.18-2.076zm32.98-7.886h-22.42v4.252h9.053v15.304h4.337V18.692h9.03V14.44zm17.409 3.208c-1.184-2.517-2.892-3.644-5.409-3.644-2.69 0-4.191 1.116-5.38 3.644l-7.256 15.478a6.729 6.729 0 00-.318.87h4.861a4.44 4.44 0 01.235-.698l1.183-2.69h13.306l1.245 2.724c.09.214.159.437.206.664h4.973a6.729 6.729 0 00-.318-.87l-7.328-15.478zm-10.41 9.288l3.584-7.96a1.366 1.366 0 011.361-.87 1.495 1.495 0 011.39.87l3.645 7.954-9.98.006zm44.691 1.39c0-2.317-.726-3.444-2.2-4.108a4.826 4.826 0 002.11-4.281 5.458 5.458 0 00-1.764-3.996c-.982-.921-2.31-1.502-4.426-1.502h-14.204c-.865 0-1.301.408-1.301 1.217v18.34h4.309v-7.35h10.649c1.82 0 2.456.781 2.456 2.232v3.706c.004.474.034.947.09 1.418h4.37a14.897 14.897 0 01-.089-1.853v-3.823zm-4.834-6.425c-.374.52-1.01.871-2.233.871h-10.409v-3.734a.44.44 0 01.491-.491h9.896c1.116 0 1.675.229 2.026.608a2.098 2.098 0 01.229 2.746zm26.127 7.496c0 .318-.146.463-.436.463h-6.078a5.78 5.78 0 01-4.51-1.998 5.496 5.496 0 01-.061-7.172 5.732 5.732 0 014.571-1.998h10.761V14.44h-10.471c-3.734 0-6.452 1.39-8.243 3.555a9.796 9.796 0 00.435 12.933c1.792 1.88 4.309 3.07 7.814 3.07h9.259a1.115 1.115 0 001.245-1.245v-9.489h-4.281l-.005 6.134zm26.986-11.749c-1.184-2.517-2.892-3.644-5.409-3.644-2.69 0-4.197 1.116-5.38 3.644l-7.228 15.478a5.87 5.87 0 00-.318.87h4.861c.06-.238.136-.47.229-.698l1.189-2.69h13.306l1.244 2.724c.089.214.156.437.201.664h4.962a7.497 7.497 0 00-.318-.87l-7.339-15.478zm-10.415 9.288l3.589-7.96a1.362 1.362 0 011.356-.87 1.49 1.49 0 011.406.87l3.645 7.954-9.996.006zm17.179-8.244h9.059v15.304h4.337V18.692h9.025V14.44h-22.421v4.253zm32.11 0h15.667V14.44h-17.777c-1.853 0-2.79.865-2.79 2.634v14.183c0 1.82.926 2.718 2.751 2.718h17.816v-4.113h-15.684c-.374 0-.558-.207-.558-.609V26.1h16.186v-3.773h-16.186v-3.053a.518.518 0 01.575-.58z" fill="#A8A271"/><path d="M47.515 24.933A28.344 28.344 0 0024.112 14.25a9.69 9.69 0 00-4.186.898A23.838 23.838 0 0127.74 3.986 2.243 2.243 0 0024.95.475a28.341 28.341 0 00-10.7 23.414 9.69 9.69 0 00.898 4.186A23.81 23.81 0 013.986 20.26a2.242 2.242 0 10-3.511 2.79 28.342 28.342 0 0023.414 10.7 9.688 9.688 0 004.186-.898 23.81 23.81 0 01-7.814 11.162 2.241 2.241 0 102.79 3.511 28.343 28.343 0 0010.7-23.414 9.687 9.687 0 00-.898-4.186 23.838 23.838 0 0111.162 7.814 2.244 2.244 0 003.717-.307 2.241 2.241 0 00-.206-2.484l-.011-.016zm-18.742-.179l-2.69.798a.77.77 0 00-.53.53l-.799 2.69a.781.781 0 01-1.507 0l-.798-2.69a.77.77 0 00-.53-.53l-2.69-.798a.781.781 0 010-1.507l2.69-.798a.77.77 0 00.53-.53l.798-2.69a.782.782 0 011.507 0l.798 2.69a.77.77 0 00.53.53l2.69.798a.782.782 0 010 1.507z" fill="#fff"/><path d="M28.772 24.753l-2.69.799a.77.77 0 00-.53.53l-.799 2.69a.781.781 0 01-1.506 0l-.799-2.69a.77.77 0 00-.53-.53l-2.69-.799a.782.782 0 010-1.506l2.69-.799a.77.77 0 00.53-.53l.799-2.69a.782.782 0 011.506 0l.799 2.69a.77.77 0 00.53.53l2.69.799a.781.781 0 010 1.506z" fill="#A8A271"/></g><defs><clipPath id="clip0"><path fill="#fff" d="M0 0h260.11v48H0z"/></clipPath></defs></svg>